<?xml version="1.0" encoding="utf-8"?>
<!-- Generator: Adobe Illustrator 22.0.1, SVG Export Plug-In . SVG Version: 6.00 Build 0)  -->
<svg version="1.1" id="Layer_1" xmlns="http://www.w3.org/2000/svg" xmlns:xlink="http://www.w3.org/1999/xlink" x="0px" y="0px"
	 viewBox="0 0 400 200" style="enable-background:new 0 0 400 200;" xml:space="preserve">
<style type="text/css">
	.st0{fill:#FFFFFF;}
</style>
<g>
	<path class="st0" d="M130.6,68.4h7.8v23h-7.8V68.4z"/>
	<path class="st0" d="M119.6,68.4l-9.7,23h-7.6l-9.7-23h8.3l5.5,13.4l5.6-13.4H119.6z"/>
	<path class="st0" d="M101.8,120.2c-1.8-0.4-3.3-1-4.5-1.7l2.5-5.6c1.1,0.6,2.3,1.1,3.7,1.5c1.4,0.4,2.7,0.6,3.9,0.6
		c1.1,0,1.8-0.1,2.3-0.3c0.5-0.2,0.7-0.5,0.7-0.9c0-0.5-0.3-0.8-0.9-1.1c-0.6-0.2-1.6-0.5-3-0.8c-1.8-0.4-3.3-0.8-4.4-1.2
		c-1.2-0.4-2.2-1.1-3.1-2.1c-0.9-1-1.3-2.3-1.3-4c0-1.4,0.4-2.8,1.2-3.9c0.8-1.2,2-2.1,3.6-2.8c1.6-0.7,3.6-1,5.9-1
		c1.6,0,3.1,0.2,4.6,0.5c1.5,0.3,2.9,0.8,4,1.5l-2.3,5.6c-2.3-1.1-4.4-1.7-6.4-1.7c-2,0-3,0.5-3,1.4c0,0.5,0.3,0.8,0.9,1
		c0.6,0.2,1.6,0.5,2.9,0.7c1.8,0.3,3.2,0.7,4.4,1.1c1.2,0.4,2.2,1.1,3.1,2.1c0.9,1,1.3,2.3,1.3,3.9c0,1.4-0.4,2.8-1.2,3.9
		c-0.8,1.2-2,2.1-3.6,2.8s-3.6,1-5.9,1C105.5,120.8,103.6,120.6,101.8,120.2z"/>
	<path class="st0" d="M130.6,91.4h7.8v28.9h-7.8V91.4z"/>
	<g>
		<path class="st0" d="M177.4,69.4c6.8,0,11.9,1.2,15.3,3.5c3.3,2.3,4.9,5.3,4.9,9c0,2.2-0.6,4.2-1.7,6c-1.1,1.8-2.8,3.2-5.1,4.3
			l-2.1,1l2.2,0.8c2.9,1.1,5.2,2.6,6.8,4.6c1.6,2,2.3,4.4,2.3,7.2c0,4.2-1.7,7.4-5.3,9.7c-3.6,2.4-9,3.6-16,3.6h-28.6V69.4H177.4
			 M165.7,89.4h1h8.3c5.6,0,6.8-2.6,6.8-4.9c0-2.2-1.2-4.9-6.8-4.9h-8.3h-1v1v7.7V89.4 M165.7,109.1h1h10.7c5.7,0,6.9-2.8,6.9-5.1
			c0-2.3-1.2-5.1-6.9-5.1h-10.7h-1v1v8.2V109.1 M177.4,68.4h-28.1v51.9h29.6c7.2,0,12.7-1.2,16.5-3.7c3.8-2.5,5.7-6,5.7-10.6
			c0-3.1-0.9-5.7-2.6-7.9c-1.7-2.2-4.1-3.8-7.2-5c2.4-1.2,4.2-2.7,5.5-4.7c1.2-1.9,1.8-4.1,1.8-6.5c0-4.1-1.8-7.4-5.4-9.9
			C189.7,69.6,184.4,68.4,177.4,68.4L177.4,68.4z M166.7,88.4v-7.7h8.3c3.9,0,5.8,1.3,5.8,3.9c0,2.6-1.9,3.9-5.8,3.9H166.7
			L166.7,88.4z M166.7,108.1v-8.2h10.7c3.9,0,5.9,1.4,5.9,4.1c0,2.7-2,4.1-5.9,4.1H166.7L166.7,108.1z"/>
	</g>
	<g>
		<path class="st0" d="M224.1,69.4v37.3v1h1h22.8v11.6h-39.5V69.4H224.1 M225.1,68.4h-17.7v51.9h41.5v-13.6h-23.8V68.4L225.1,68.4z"
			/>
	</g>
	<g>
		<path class="st0" d="M295.6,69.4v11.2h-24.3h-1v1v6.1v1h1h21.3v10.6h-21.3h-1v1v6.8v1h1h25.3v11.2h-41.8V69.4H295.6 M296.6,68.4
			h-42.8v51.9h43.8v-13.2h-26.3v-6.8h22.3V87.7h-22.3v-6.1h25.3V68.4L296.6,68.4z"/>
	</g>
</g>
</svg>
